<svg width="346" height="615" viewBox="0 0 346 615" fill="none" xmlns="http://www.w3.org/2000/svg">
<path d="M55.0427 610.723C49.8904 542.881 70.9145 476.135 79.8296 408.688C91.0403 323.846 83.3853 235.396 112.25 154.831L112.579 185.571C113.285 171.42 116.312 157.401 121.447 144.195L126.64 173.093C128.651 162.884 128.87 152.301 127.321 142.01C128.14 151.467 130.865 160.78 135.284 169.181C134.486 154.595 134.805 139.955 136.213 125.426C137.432 146.724 141.412 167.837 148.035 188.12C143.943 170.731 150.179 152.08 145.63 134.817C140.874 116.762 125.482 103.83 110.899 92.1618C131.896 97.8894 141.874 121.239 149.01 141.779C150.499 125.685 145.167 109.059 134.618 96.825C147.628 107.344 157.035 122.243 160.98 138.486L137.188 85.5915C153.714 99.3488 167.135 116.84 176.135 136.379C172.823 115.171 161.411 95.331 144.783 81.7837L169.898 98.9883C163.711 92.1615 158.213 84.6948 153.514 76.7824C160.491 82.7831 169.652 86.18 178.841 86.2059L158.669 76.0677C169.186 76.8069 179.554 79.6541 188.976 84.3903C177.424 81.4287 167.325 74.4357 156.071 70.4639C144.818 66.4922 130.695 66.3104 122.656 75.1363C138.116 58.8155 159.058 47.7998 181.269 44.3105C163.064 43.4101 144.634 48.7231 129.674 59.1255C139.775 51.0633 151.805 45.4697 164.483 42.9393C146.838 48.8271 130.521 58.7051 117.109 71.6098C127.9 51.7707 134.802 29.819 137.306 7.37476C125.343 24.1791 117.062 43.5634 113.167 63.7961C118.953 44.4397 123.825 24.7887 127.729 4.96008C126.355 18.5643 122.071 31.8488 115.252 43.7112C116.783 32.9623 116.756 21.9667 115.176 11.2233L109.548 44.4772C110.51 30.4542 108.606 16.232 103.959 2.97845C106.543 27.8876 107.291 52.9912 106.238 78.0054C107.728 54.0282 93.9123 29.7786 72.5114 18.8358C87.7827 34.4234 97.1737 55.6386 98.4468 77.413C95.5677 52.1369 80.1097 28.6348 58.0842 15.9358C76.2444 31.7474 95.26 48.8486 101.873 72.0048C92.1792 57.8076 79.8786 45.4152 65.7501 35.6158C67.8875 51.9125 95.1496 57.7496 93.4849 74.1215L62.0655 38.3312C76.1788 49.1987 87.0784 64.1997 93.0684 80.9928C68.527 66.3025 32.7573 75.6384 18.5089 100.433C36.1177 81.1749 66.2513 74.6733 90.2164 84.9734C73.3739 85.1437 56.1194 89.4547 42.9152 99.921C29.7109 110.387 21.3171 127.654 24.1564 144.238C32.4962 130.412 41.0081 116.427 52.7619 105.361C64.5156 94.296 80.1684 86.3647 96.2554 87.378C77.1476 94.3286 55.0135 104.826 52.2374 124.981C60.7766 108.289 75.9799 95.0934 93.7023 89.0185C83.0789 95.7794 73.8946 104.754 66.9124 115.209L98.8153 89.4659C88.5863 97.7846 78.2336 106.241 70.5998 116.982C62.966 127.722 58.2007 141.203 60.6259 154.162C68.22 127.557 79.3987 97.0701 105.821 88.7949C94.2398 101.647 86.569 117.967 84.0703 135.068L106.697 93.4336C107.657 114.033 86.7856 132.888 92.9311 152.584L109.867 97.0398C102.152 120.434 97.9811 144.979 97.5599 169.588L112.547 104.285C110.1 130.412 103.937 156.19 94.2854 180.606L99.0415 151.073C97.1713 163.305 95.7271 175.577 94.708 187.912L107.117 158.847C106.764 169.852 104.038 180.795 99.2137 190.688L109.649 169.53C108.696 177.45 106.679 185.213 103.633 192.582L108.36 183.398" stroke="#231F20" stroke-width="4" stroke-miterlimit="10" stroke-linejoin="round"/>
<path d="M265.494 587.844C266.493 529.14 270.781 470.499 278.379 412.316C277.547 423.745 279.524 435.402 284.104 445.831L282.085 422.475L285.644 442.313L284.978 418.207C284.937 422.35 285.894 426.513 287.788 430.177L289.35 409.173C297.218 426.201 302.839 444.353 306.045 462.964C307.585 444.291 304.109 425.202 296.074 408.423C297.989 415.751 301.507 422.621 306.274 428.366L299.05 414.71C301.923 421.247 305.962 427.242 310.895 432.259C310.791 426.055 310.021 419.873 308.564 413.857C310.062 418.54 312.831 422.787 316.474 425.951L313.643 414.086L320.679 420.789L296.136 395.434C310.167 405.488 326.966 411.275 343.952 411.9L299.841 388.543C306.399 391.791 314.33 391.895 320.971 388.814L298.925 388.294C307.918 383.901 317.494 380.82 327.32 379.197L303.339 386.628C317.244 377.365 327.445 362.252 331.087 345.494L299.258 377.968L315.1 354.008C310.791 362.564 305.504 370.599 299.404 377.864C301.861 374.284 303.588 370.162 304.4 365.832C297.697 374.825 292.181 384.796 288.059 395.35C290.744 376.303 289.808 356.694 285.311 338L283.625 377.157L278.92 348.388C278.92 355.736 280.378 363.084 283.23 369.808L277.276 348.991C281.46 363.75 282.813 379.384 281.252 394.684C280.024 384.38 278.733 373.888 274.424 364.521C270.115 355.153 262.184 346.993 252.337 345.411C262.725 355.819 269.137 370.433 269.907 385.442L249.818 364.999C253.045 370.578 258.208 374.908 264.12 376.99C254.939 376.553 246.009 372.119 239.889 364.999C242.574 372.535 249.381 378.322 257 379.571L231 366.477C250.651 375.137 267.221 391.145 277.026 410.88C269.095 406.737 260.747 402.491 251.859 402.699C242.97 402.907 233.561 409.194 232.79 418.416C237.37 413.607 242.241 408.611 248.486 406.758C254.731 404.905 262.725 407.549 264.682 414.002C254.357 409.006 240.534 418.665 241.034 430.51L269.594 407.237L260.872 425.285C264.994 421.517 268.387 416.875 270.739 411.733L262.704 448.85L271.968 422.038C267.221 436.193 263.807 450.827 261.788 465.67L275.215 424.411L262.746 470.707L272.009 434.861L265.764 471.936C270.219 457.905 273.008 443.312 274.07 428.595C270.261 443.916 267.804 459.612 266.763 475.391C267.346 465.566 269.511 455.844 273.133 446.747L271.572 468.397L274.778 433.32C273.654 443.583 274.653 454.116 277.671 463.963C278.525 449.703 278.109 435.36 276.443 421.184C276.547 432.404 278.088 443.625 280.981 454.429L277.838 427.325C277.942 438.337 279.774 449.308 283.23 459.716L280.773 431.489C279.607 442.959 281.065 454.72 284.978 465.503L281.023 431.426C281.252 441.252 282.834 451.056 285.728 460.424L282.376 437.38C280.503 436.88 281.418 441.043 283.23 440.315C285.041 439.586 285.061 436.838 284.187 435.027C283.313 433.216 281.897 431.572 281.835 429.532C281.543 419.019 281.752 408.507 282.501 398.036" stroke="url(#paint0_linear_1_6)" stroke-width="4" stroke-miterlimit="10" stroke-linejoin="round"/>
<path d="M259.333 593C251.819 437.538 254.861 281.585 268.457 126.526L294.801 175.08C293.772 161.834 288.047 149.035 278.834 139.504L328.793 185.104L311.305 164.832L324.41 179.868L316.538 166.756C321.055 170.336 326.467 172.798 332.148 173.916C331.029 169.039 328.927 164.34 325.975 160.312L336.978 166.667C334.339 157.762 323.471 155.077 314.749 151.944C296.322 145.276 281.249 129.972 274.853 111.445L344 151.318C339.035 139.817 328.122 131.09 315.778 128.719C321.145 132.209 327.675 133.82 334.026 133.194L317.567 126.705C323.202 128.092 329.375 127.063 334.205 123.886C313.139 122.499 292.431 116.01 274.317 105.18L298.245 106.568C293.549 102.048 287.466 99.0495 281.025 98.065C297.708 90.905 312.2 78.6435 322.039 63.339C300.884 70.9912 282.323 85.6693 270.068 104.509C266.534 79.4043 244.216 58.1927 218.99 56C231.603 56.895 243.679 63.2943 251.506 73.2288L229.993 68.9327C238.849 73.4972 246.81 79.7623 253.429 87.2355L224.983 81.1943C236.657 82.9843 247.391 89.9652 253.698 99.9445C244.618 96.0512 234.018 95.8275 224.805 99.2733C243.232 96.454 262.867 103.256 275.614 116.905C265.416 112.072 254.145 109.566 242.874 109.611C252.401 110.371 260.854 118.247 262.33 127.69C249.896 115.831 229.59 113.235 214.607 121.648C199.624 130.061 191.215 148.722 194.838 165.548C204.007 144.023 227.533 129.48 250.88 130.912C238.401 122.946 219.214 136.729 222.747 151.094C228.025 138.161 239.698 128.003 253.25 124.602C249.807 133.283 242.874 140.488 234.421 144.381L252.669 135.924C231.558 146.261 219.527 172.261 225.207 195.083C229.859 173.245 242.829 153.331 260.899 140.219C253.966 157.359 250.433 175.885 250.567 194.412L259.288 152.571L257.186 191.861L263.18 150.423L253.116 238.177L260.764 169.039C262.151 187.297 261.704 205.644 259.378 223.812C262.732 198.752 263.314 173.29 261.078 148.051C264.835 162.236 266.445 177.049 265.774 191.727L264.745 146.619L266.892 195.799L266.132 145.858L272.841 218.264L272.17 168.054C272.304 189.937 274.63 211.819 279.192 233.255C273.914 203.317 269.665 173.156 266.534 142.905C271.991 150.288 275.077 159.417 275.3 168.591V135.476C277.09 162.505 281.07 189.445 287.242 215.847C284.782 191.727 279.102 167.964 270.381 145.321" stroke="url(#paint1_linear_1_6)" stroke-width="4" stroke-miterlimit="10" stroke-linejoin="round"/>
<defs>
<linearGradient id="paint0_linear_1_6" x1="272" y1="531.5" x2="267.358" y2="587.699" gradientUnits="userSpaceOnUse">
<stop stop-color="#231F20"/>
<stop offset="1" stop-color="#231F20" stop-opacity="0"/>
</linearGradient>
<linearGradient id="paint1_linear_1_6" x1="260.5" y1="531.5" x2="264.5" y2="593" gradientUnits="userSpaceOnUse">
<stop stop-color="#231F20"/>
<stop offset="1" stop-color="#231F20" stop-opacity="0"/>
</linearGradient>
</defs>
</svg>
